<svg viewBox="0 0 300 300" width="300" height="300" xmlns="http://www.w3.org/2000/svg"><svg xmlns="http://www.w3.org/2000/svg"><defs><linearGradient x1="96.191" y1="111.49" x2="113.082" y2="151.176" gradientUnits="userSpaceOnUse" id="b"><stop offset="0" stop-color="#242205"/><stop offset="1" stop-color="#302003"/></linearGradient><linearGradient x1="111.289" y1="108.027" x2="109.73" y2="110.651" gradientUnits="userSpaceOnUse" id="c"><stop offset="0" stop-color="#9d550e"/><stop offset="1" stop-color="#b04722"/></linearGradient><clipPath id="a"><path fill="none" d="M0 0h299.991v299.991H0z"/></clipPath></defs><g clip-path="url(#a)" fill="none" stroke-miterlimit="10" font-family="none" font-weight="none" font-size="none" text-anchor="none" style="mix-blend-mode:normal"><path d="M28.688 282.029c-.483-1.818.098-4.806-.639-6.306-1.844-3.75-5.524-6.406-5.117-11.042.215-2.448 1-4.274 2.321-6.357-5.827-4.157-12.512-9.403-16.295-15.528-1.971-3.19-2.698-10.17-2.315-13.763.402-3.769.368-5.435-.238-9.157-.617-3.792.515-8.968 2.822-12.054 1.916-2.65 3.789-3.654 6.839-4.447l-6.521-36.04a510 510 0 0 0-1.729-9.199c-.416-2.114-2.323-7.812.466-8.514 1.835-.46 4.477 3.268 6.007 1.229 3.339-5.598 4.05-2.404 8.617-.576 2.857-2.392 3.506-6.405 7.971-2.636 3.242 2.736 3.906-3.618 6.569-3.528 1.427.048 3.879 2.064 5.482 2.725.457-.524 1.248-1.416 1.606-1.984 2.8-4.438 4.028-1.636 7.557-.132l.138-.098c1.603-1.169 2.951-4.332 5.227-4.043 1.476.187 2.76 2.527 4.33 1.425 1.006-.706 1.41-2.511 2.909-2.271.553.088 1.047.442 1.356.905.716 1.075 4.173 20.537 4.543 23.123a164 164 0 0 0 3.553-24.385c-9.042-9.17-11.21-14.515-13.67-26.857-.904 5.074-1.102 11.538.166 16.529.407 1.603 1.095 3.335 1.709 4.886-6.237-3.853-9.575-9.67-11.314-16.717-3.192-12.928 2.486-29.331 9.338-40.369-7.609-16.316-9.568-36.553-8.111-54.365.222-2.716 1.459-14.437 4.237-15.054 6.357-1.412 16.119 2.773 22.215 5.01 12.094 4.858 23.285 11.729 33.93 18.953 5.306-2.089 10.091-3.827 15.667-5.282a116.76 116.76 0 0 1 60.063.758c4.959 1.344 8.675 2.839 13.429 4.473 15.192-9.831 30.717-18.803 48.542-23.123 3.001-.728 6.423-1.467 9.492-1.092 3.177.428 3.633 6.397 4.002 8.895.476 3.218.448 6.82.447 10.069a159.2 159.2 0 0 1-5.362 39.525c-.392 1.508-.827 3.143-1.347 4.607 4.964 11.14 7.157 26.029 7.217 38.023.124 25.352.22 50.005 12.384 72.991 6.754 12.765 15.766 25.335 16.694 40.15.605 9.655-2.443 20.662-11.437 25.694-.221 9.479-2.707 18.72-9.785 25.425-1.527 1.446-8.029 6.454-10.042 4.597-.029-.377.954-1.884 1.21-2.255 4.317-6.236 6.573-18.641 4.528-26.017-2.783 16.925-9.255 26.334-25.249 33.217.256 5.799 1.363 12.391 1.555 17.953H39.258c-4.015-4.63-8.978-11.975-10.57-17.971m237.896-90.389a1646 1646 0 0 0 6.322 17.468c3.674 9.959 8.88 23.556 9.277 34.167 2.736-2.859 3.59-8.994 3.454-12.804-.41-11.453-7.932-22.589-13.938-31.922-.391-.608-4.126-6.429-4.239-6.542-.41-.069-.501-.167-.876-.367" fill="#2e1f02"/><path d="M191.632 291.271c-.058-4.585-.121-10.687.677-15.268 2.33-13.36 8.974-28.12 18.519-37.884 3.433-3.511 8.324-7.137 13.385-7.235a7.77 7.77 0 0 1 5.697 2.353c4.893 5.06 7.882 27.965 8.479 35.449.795 9.996 2.212 21.305 2.63 31.314h-49.227c-.03-2.914-.146-5.814-.16-8.729" style="fill:#3f88c5"/><path d="M80.667 266.643c2.017.23 3.157.131 5.042-.043 1.343-.123 9.178-.989 9.757-.536.252 2.225-4.272 8.845-6.345 10.021-2.957-.631-5.56-1.771-8.376-2.798-1.49-.542-3.843-1.783-5.35-1.31-1.205-.675-1.902-1.192-3.023-2.022 3.469-2.056 5.53-1.91 8.295-3.312" style="fill:#dcceb2"/><path d="M125.554 300c-1.029-17.722.948-33.097 7.34-49.856 1.236-3.239 2.002-6.687 4.104-9.751 2.51-3.657 8.991.274 9.08 3.297.071 2.42-2.126 7.42-2.994 10.025q-1.29 4.002-2.43 8.047A118.8 118.8 0 0 0 135.971 300z" style="fill:#3f88c5"/><path d="M139.407 244.516c5.495.38 3.821 7.877-.62 9.87-1.667.34-3.078-.18-3.347-1.976-.48-3.215.33-7.21 3.967-7.894" fill="#2e1f02"/><path d="M138.523 246.242c4.178-.201 3.028 4.818.567 6.398-3.793 1.106-2.694-4.563-.567-6.398" fill="#6f4921"/><path d="M206.67 224.026c1.309-1.584 2.508-3.715 3.859-5.168 6.923 1.954 13.324 5.117 17.774 10.925-.735-.214-1.421-.402-2.14-.674-5.49-.398-10.775 2.02-14.787 5.605-11.533 10.296-20.153 29.071-21.895 44.218h-.001c-.755 5.578-1.39 15.459-.956 21.068h-49.945c-.302-8.096-.35-16.917 1.242-24.879 1.971-9.857 5.163-20.834 9.504-29.915 7.331 5.895 13.459 4.422 21.255.71-1.2 6.904-1.625 13.301 2.403 19.49 1.38 2.12 2.921 3.7 5.199 4.865 1.551.794 2.348.948 3.81-.05l1.445.929c1.245.42 2.828.788 3.837-.259.098.722.474 2.861.899 4.769-.425-1.908-.8-4.047-.898-4.769-.268-2.263-.819-4.667-.883-6.943-.357-12.557 5.181-22.806 13.156-31.796l-.001-.001c2.282-2.745 4.843-5.364 7.123-8.125m-4.056 6.659c-.298.159-.608.359-.924.56.316-.201.626-.401.925-.56Zm16.886-4.466q1.164.163 2.394.484l-.001-.001a21 21 0 0 0-2.393-.483M96.765 261.028c-2.758-2.607-6.76-7.865-5.998-12.105.174-.967 1.766-4.238 2.265-5.191 2.505-4.786 7.018-14.673 11.802-17.457-1.882 7.474-3.197 15.045-3.451 22.77 0 1.271.544 6.243.368 6.85-1.248 4.297-2.739 8.841-3.442 13.328-1.609 10.258-1.092 20.515.036 30.778H78.286c.172-.672.76-2.181.993-2.955.297-.981.727-2.708 1.103-3.527.094-.589-.101-1.81-.156-2.443-.451-5.202-2.762-11.444-5.028-16.2 6.978 4.053 11.351 8.839 15.681 15.464.361.553 1.27 2.01 1.89 2.123.121-.434-.055-1.285-.204-1.727-3.012-8.909-9.341-14.26-17.169-18.757-1.205-.676-1.902-1.193-3.023-2.023 3.469-2.056 5.53-1.911 8.295-3.312 1.624-1.79 2.403-4.161 3.647-6.246a14 14 0 0 0 5.733 2.755c1.552.359 7.004 1.059 7.435-.968-.112-.588-.291-.693-.717-1.156.518-.67 1.028-1.879 1.497-3.213-.469 1.334-.98 2.542-1.498 3.213Zm-67.538 3.515c-1.51.784-1.384 1.218-.323 2.498q.126.1.255.195c2.177 1.591 4.683 2.292 7.364 1.868 6.306-1.001 15.65-10.317 14.527-16.944-.385-.824-2.103-2.01-1.551-2.861.836-.28 1.226-.088 2.022.28 1.585 1.346 4.933 8.408 6.479 10.894-.029 10.328-6.483 19.17-16.625 19.834-1.073.07-4.656-.101-5.284.443.021 1.647 4.81 1.742 6.021 1.624 12.052-1.172 17.932-10.999 17.942-22.249 7.99 5.311 12.594 16.47 16.705 24.879 1.153 2.36 2.267 6.488 3.622 8.514-.376.819-.806 2.546-1.103 3.527-.233.774-.821 2.283-.993 2.955H43.859a39 39 0 0 1-2.053-2.13c-3.206-3.621-9.65-12.779-10.128-18.217-.082-.939 1.109-.347 1.657-.703.23-1.633-3.612-6.737-4.738-8.374-2.656-3.604-3.447-5.899-.982-9.951.508.713 2.023 3.192 1.612 3.918" style="fill:#3f88c5"/><path d="M106.437 226.767c.706-2.675 1.033-3.807 3.698-5.09 3.724-1.794 7.65-3.048 11.699-3.855-1.842 2.615-2.71 5.055-3.397 8.155l-.306 1.583c-.944 6.851-.296 14.714 8.128 15.929 2.59.373 4.647-.325 6.973-1.423-1.38 4.322-3.251 8.431-4.686 13.048a127.9 127.9 0 0 0-5.857 38.49c.016 1.778.008 4.692.205 6.397h-21.361c-1.947-11.744-1.817-23.115.663-34.811.814-3.839 9.652-28.432 9.142-29.291-1.454.73-3.289 4.786-4.009 6.288-1.154 2.364-2.189 4.776-3.243 7.187-.152-2.718-.176-8.499.446-11.151.235-3.646.989-7.927 1.905-11.455Z" style="fill:#3f88c5"/><path d="M77.975 63.442c1.992-1.434 4.323-3.377 6.977-2.976.554.083 1.042.341 1.37.803.765 1.074.648 2.84.393 4.076-.725 3.52-7.814 16.372-10.64 18.228-.598.393-1.47.586-2.171.413-.872-.214-1.483-.982-1.88-1.74-.722-1.377-.939-2.875-.992-4.406-1.03 2.112-2.438 4.325-4.796 5.199-2.267.84-3.358-1.463-3.629-3.35 2.94-5.16 9.147-13.031 13.276-17.166.793.404 1.27.603 2.092.919" fill="#9dc956"/><path d="m198.37 99.83.666-.001c.318.444.63.974.922 1.444-.534-.463-1.066-.964-1.589-1.443" fill="#1f2205"/><path d="M126.765 67.696c2.941.444 2.705 4.818 2.328 7.015-.372 2.165-1.067 6.599-3.735 6.902-5.135-1.69-3.075-12.714 1.407-13.917m-36.212.707c1.718-.143 2.115.807 1.876 2.404-.242 1.619-1.41 3.442-2.707 4.406-.87.647-1.356.58-2.4.377l.525.474-.017.157c-1.53-.452-1.375-2.525-.95-3.71a7.27 7.27 0 0 1 3.673-4.108m43.957 3.957c2.454-.071 2.405 2.26 2.07 4.128-.259 1.45-.822 2.312-2.034 3.14-2.833-.424-2.742-5.556-.036-7.267" fill="#9dc956"/><path d="M170.556 89.865c.68-.089 1.479-.215 2.155-.264 2.506 5.005 4.781 8.417 8.219 12.89a71 71 0 0 0 3.715 4.085c.292.296 2.458 2.432 2.577 2.608 2.616 2.181 4.433 3.698 7.241 5.577 2.338 1.564 8.128 4.957 10.011 6.929.349 6.419-.889 18.219-2.487 24.351-2.429 9.907-5.552 16.671-12.19 24.562-.812.965-4.888 5.109-4.811 5.881.34.344.734.419 1.217.483 3.001-.376 5.117-.842 7.958-1.975 1.424-.567 3.331-1.488 4.718-1.928-.428 2.379-.595 3.188-1.894 5.231-1.216 1.711-4.049 4.062-5.738 5.484-10.967 9.229-25.557 16.354-39.53 19.487-2.542.57-6.827 1.198-9.322 1.009-1.334-.101-5.008-1.286-6.463-1.727a115 115 0 0 1-31.698-14.862 49 49 0 0 1-7.827-6.413c-8.059-8.02-7.463-14.427-7.894-24.921-.137-3.338-.654-6.645-1.298-9.916.62.214 1.787.693 2.212.077-.132-.858-1.767-5.22-2.168-6.553-.576-1.921-.981-3.863-1.421-5.714-.318-1.338-2.176-4.944-2.066-6.612.053-2.429.186-2.56.269-3.12 1.453-9.774 5.188-19.012 9.734-27.728 1.557-2.984 1.665-3.092 4.711-4.398 2.902-1.077 5.896-1.731 8.993-1.234 1.484 7.268 4.133 12.748 9.136 18.282 2.055 2.273 3.934 4.562 6.663 6.119-.082-1.331-.154-2.591-.315-3.918 3.431 6.203 7.495 11.44 14.424 13.926.262.094.406.106.67.012.097-.505-.34-1.064-.658-1.594-1.395-2.325-2.187-4.069-2.943-6.677 3.002 4.21 6.758 7.103 11.453 9.31 1.131.531 5.046 2.432 5.635.503-.208-1.213-.671-2.313-.933-3.621-.691-3.443-1.194-7.624-1.219-11.139 1.242-1.636 8.764-12.819 11.401-17.453-2.637 4.634-10.159 15.818-11.401 17.453-.069-.743-.073-1.598-.095-2.353 2.074-2.873 4.163-6.733 5.925-9.883 4.44-7.938 9.245-16.565 12.113-25.198a64 64 0 0 0 2.035 6.721c.443 1.213 1.35 3.276 1.655 4.423-.352.345-.396.264-.948.414-2.254.675-3.196 1.06-5.24 2.219-1.088.738-4.771 3.282-4.778 4.625.533.456 1.025.046 1.629-.232 2.906-1.676 5.638-2.531 8.868-3.228" fill="#fbd5b4"/><path d="M94.233 112.622c4.053-2.532 6.105-3.383 10.996-2.449a21.65 21.65 0 0 1 12.494 10.806c.654 1.304 1.072 2.499 1.538 3.878-.67-.531-1.527-1.176-2.151-1.731 2.587 7.318 3.139 16.487-.097 23.705-1.9 4.238-6.179 6.993-10.828 5.162-4.3-2.365-6.373-7.795-7.216-12.373-1.179-6.399-.252-13.503 3.521-18.922l.001.001c2.128-2.352 3.634-3.407 6.924-3.587-7.268-3.769-12.18-2.193-16.413 5.172-.89 1.548-1.869 4.435-2.09 6.195l-.001.001c-.7 4.28-.127 7.402.762 11.592-.014.199.034.456.126.75-.093-.294-.141-.551-.127-.75-1.967-1.961-3.692-6.79-4.378-9.483-.457-2.784-.414-4.415-.064-7.243 1.02-4.685 3.323-7.762 7.001-10.725Zm8.257 8.076c-.647-.463-1.576-.358-2.361-.243-3.267.479-5.557 3.523-7.378 6.005-.529.721-1.059 1.639-1.839 2.019v.002c.78-.38 1.311-1.299 1.84-2.02 1.821-2.482 4.111-5.526 7.378-6.005.785-.115 1.713-.22 2.36.242m2.68 31.573-.073.007zm-11.155-7.383c-.544-.776-1.808-2.772-2.215-4.065.407 1.292 1.671 3.289 2.215 4.065m8.709 7.019c-3.583-1.102-6.624-4.044-8.709-7.019 2.086 2.975 5.126 5.917 8.709 7.019m3.462.088c-.208.148-.621.239-1.015.278.394-.04.806-.131 1.015-.279Z" fill="url(#b)"/><path d="M105.002 122.347c1.377-2.183 5.029-3.66 7.394-2.32 2.152 1.22 3.403 6.14 3.965 8.363.47 2.168 1.207 10.513-.214 12.08.078 2.84-.432 4.332-1.79 6.87l-.227.293c-.802 1.14-1.856 2.284-3.291 2.559-.542.127-.572.123-1.133.124-3.138.26-5.626-3.213-6.547-5.86-.976-1.209-1.41-3.153-1.755-4.641-.502-2.165-.793-11.686 1.478-12.549-.26-2.232.064-3.761 2.12-4.919" fill="#1d4f10"/><path d="M103.16 144.456c-.008-2.381 1.132-8.081 3.653-8.962 1.19.25 1.203 1.683 1.273 2.655.21 5.747 6.079 7.774 7.376-.185.34.673.54 1.748.685 2.506.078 2.84-.432 4.332-1.79 6.87l-.227.293c-.802 1.14-1.856 2.283-3.291 2.559-.542.127-.572.123-1.133.124-3.138.26-5.626-3.213-6.547-5.86" fill="#449f3f"/><path d="M109.706 150.316c-1.598-.928-4.45-3.928-3.964-5.904.804-.896 2 .272 2.534.945 2.648-1.12 5.366-1.431 6.08 1.983l-.226.293c-.802 1.14-1.856 2.284-3.291 2.559-.542.127-.572.123-1.133.124" fill="#9dc956"/><path d="M108.086 138.15c.14-2.973.546-7.538 2.432-9.978.921-1.192 2.817.386 3.421 1.269 1.307 1.908 1.68 4.29 1.611 6.568-.014.527-.126 1.513-.088 1.955-1.297 7.96-7.166 5.932-7.376.185" fill="#1f2205"/><path d="M105.002 122.347c2.624-.263 3.782 1.02 4.12 3.55.637 4.76-4.91 6.194-6.24 1.37-.26-2.233.064-3.762 2.12-4.92" fill="#fefaf2"/><path d="M176.633 118.496c4.437-2.318 8.977-1.469 12.192 2.374 1.882 2.249 2.562 4.265 3.419 7.003h.001c1.015 4.866 1.182 9.406-.213 14.252-.964 3.353-2.45 6.784-5.084 9.171.117.096.167.139.211.165-.044-.025-.094-.068-.212-.164-3.81 3.07-7.872 3.703-12.217 1.304l.001-.001c-8.02-6.179-7.676-21.103-2.81-29.041.636-1.037 1.348-1.997 2.083-2.964.662-.611 1.869-1.702 2.629-2.099m-1.903 34.105v.001Zm-6.979-4.731c-3.74-5.588-4.903-15.078-3.573-21.562 1.005-1.279 3.312-3.425 5.627-4.726-2.314 1.301-4.62 3.446-5.625 4.725-1.33 6.484-.167 15.974 3.572 21.562.847 1.265 5.28 6.442 6.88 4.844-1.599 1.601-6.034-3.577-6.881-4.843m6.252-27.274.001-.001c-1.161-.355-2.682.135-4.199.987 1.517-.852 3.037-1.341 4.198-.986m19.699 7.977c1.55 1.421 3.241 4.589 3.444 5.795.077.459.259.868.427 1.271-.169-.403-.35-.812-.428-1.271-.203-1.207-1.894-4.374-3.443-5.795m-1.196-.697c.367.055.776.312 1.196.697-.42-.385-.829-.642-1.196-.697m5.416 9.157c-.098 1.239-.331 2.482-.536 3.709.01.342-.119.822-.33 1.366.211-.544.339-1.024.33-1.366.205-1.227.438-2.471.536-3.709m-.35-1.394c.188.45.359.893.35 1.394.008-.501-.162-.944-.35-1.394m-.516 6.469c-.628 1.619-1.99 3.809-2.646 4.64.655-.832 2.018-3.021 2.646-4.64m-9.557 9.451c-.223-.063-.276-.062-.339-.098.063.036.116.035.34.098.61-.096 1.344-.406 2.11-.839-.766.433-1.5.744-2.11.839Zm2.11-.839c1.314-.743 2.722-1.847 3.76-2.847-1.038 1.001-2.446 2.104-3.76 2.847" fill="#2e1f02"/><path d="M176.218 122.716c.241-.856.761-1.416 1.55-1.848 1.637-.9 3.27-1.535 5.151-1.005 2.102.618 4.288 2.682 5.27 4.636 2.554 5.085 3.017 11.498 1.61 16.98-.141.545-.27.596-.672.939-.51 5.77-7.904 12.523-13.412 7.884-2.63-2.215-3.643-4.903-4.09-8.232-.832-3.34-.8-11.467 1.306-14.34q.049-.252.11-.5c.495-2.036 1.362-3.415 3.177-4.514" fill="#449f3f"/><path d="M176.218 122.716c.241-.856.761-1.416 1.55-1.848 1.637-.9 3.27-1.535 5.151-1.005 2.102.618 4.288 2.682 5.27 4.636 2.554 5.085 3.017 11.498 1.61 16.98-.141.545-.27.596-.672.939-.055-1.429-.237-2.923-1.056-4.132-.61-.9-2.146-2.205-3.212-1.34.165-2.52.316-7.658-2.758-8.404-3.496-.847-4.5 5.362-4.833 7.497-3.746-.568-5.28 2.886-5.643 6.031-.832-3.34-.8-11.467 1.306-14.34q.049-.252.11-.5c.495-2.036 1.362-3.415 3.177-4.514" fill="#1d4f10"/><path d="M176.218 122.716c5.552-1.003 3.907 7.5-.302 7.759-2.045.126-2.752-.875-2.985-2.745q.049-.252.11-.5c.495-2.036 1.362-3.415 3.177-4.514" fill="#fefaf2"/><path d="M177.268 136.04c.333-2.136 1.337-8.345 4.833-7.498 3.074.746 2.923 5.884 2.758 8.404.12 2.616-1.203 7.556-4.269 7.535-3.779-.025-3.422-6.11-3.322-8.442" fill="#1f2205"/><path d="M179.394 145.92c4.103-.016 5.081 4.143.931 5.294-4.569.519-5.112-4.202-.931-5.295" fill="#9dc956"/><path d="M194.462 114.762c1.54 1.03 4.577 2.854 7.009 4.542-2.432-1.688-5.47-3.512-7.01-4.542zm8.724 5.797c.52.409.962.791 1.287 1.132-.325-.34-.767-.723-1.287-1.132m-5.576 20.227-.224-.043c.205-1.227.438-2.471.536-3.709v-.001c.317-1.453-.025-3.167-.253-4.609-1.945-12.211-16.446-21.761-27.747-14.647-2.763 1.739-5.09 3.659-6.938 6.451.787.562.89 1.141 1.196 2.079l-.001.001c-.306-.938-.409-1.517-1.195-2.079l-.974 1.659c-.246-6.938 3.826-11.247 9.677-14.458 4.811-1.776 7.608-2.102 12.762-1.044l.951.318c.302-.017.682.041 1.071.127-.389-.085-.769-.144-1.071-.127 5.416 2.467 9.378 5.266 13.018 10.057 2.826 3.717 4.555 6.231 3.753 11.024-.895 2.801-2.527 6.853-4.56 9Zm-.466-6.417c-.271-1.614-3.204-6.731-4.9-6.495-.857-2.737-1.537-4.753-3.419-7.003-3.215-3.843-7.755-4.692-12.192-2.374-.76.397-1.967 1.488-2.629 2.099-2.452-.75-6.509 2.268-8.745 4.514 2.236-2.246 6.294-5.265 8.745-4.515.663-.611 1.87-1.702 2.63-2.099 4.437-2.317 8.976-1.469 12.192 2.374 1.882 2.25 2.562 4.265 3.419 7.003 1.696-.236 4.629 4.882 4.9 6.495.162.96.778 1.697.777 2.631 0-.933-.616-1.67-.778-2.63m-10.896-25.104h.001c.685.743.968 1.067 1.535 1.902h-.001c-.567-.834-.849-1.159-1.535-1.902m11.674 27.768v-.034z" fill="#1f2205"/><path d="M170.556 89.865c.68-.089 1.48-.215 2.155-.264 2.506 5.005 4.781 8.417 8.22 12.89-.177.159-.306.308-.505.406-2.847-2.948-7.737-9.486-9.87-13.032" style="fill:#fbd5b4"/><path d="M138.975 193.41c-4.1-.546-7.355-2.809-9.813-6.117-3.946-5.311-7.278-12.178-6.995-18.946.088-2.106 4.113-2.35 5.781-2.577 10.032-1.353 20.464-1.472 30.43.446.972.189 2.934.586 3.439 1.386 1.101 1.744.346 6.84-.072 8.667-1.233 5.395-4.569 12.472-9.403 15.558-2.185 1.395-4.002 1.584-6.506 1.69-1.638-.01-5.398.113-6.861-.106" fill="#f3a085"/><path d="M138.975 193.41c-4.1-.546-7.355-2.809-9.813-6.117-3.946-5.311-7.278-12.178-6.995-18.946.088-2.106 4.113-2.35 5.781-2.577 10.032-1.353 20.464-1.472 30.43.446.972.189 2.934.586 3.439 1.386 1.101 1.744.346 6.84-.072 8.667-1.233 5.395-4.569 12.472-9.403 15.558-2.185 1.395-4.002 1.584-6.506 1.69l-.1-.136c.102-.202 2.083-.75 2.494-.934 6.208-2.797 9.58-9.897 11.256-16.073-1.67-1.579-3.47-3.17-5.742-3.779-9.797-2.615-20.943.866-24.797 10.808 3.2 5.705 6.148 7.66 12.003 9.927-.602.023-1.392.03-1.975.08" fill="#bf6750"/><path d="M138.975 193.41c-4.1-.546-7.355-2.809-9.813-6.117-3.946-5.311-7.278-12.178-6.995-18.946.088-2.106 4.113-2.35 5.781-2.577 10.032-1.353 20.464-1.472 30.43.446.972.189 2.934.586 3.439 1.386 1.101 1.744.346 6.84-.072 8.667-1.233 5.395-4.569 12.472-9.403 15.558-2.185 1.395-4.002 1.584-6.506 1.69l-.1-.136c.102-.202 2.083-.75 2.494-.934 6.208-2.797 9.58-9.897 11.256-16.073.424-2.418.828-5.049.693-7.508-1.66-.73-3.861-1.005-5.683-1.257a96.3 96.3 0 0 0-25.166.007c-1.393.172-2.84.273-4.19.65-1.272.354-.824 2.171-.66 3.154a32 32 0 0 0 4.068 11.35c.137.234.25.407.399.633 3.2 5.705 6.148 7.66 12.003 9.927-.602.023-1.392.03-1.975.08" fill="#2e1f02"/><path d="M173.641 106.24c1.932-.215 3.242-.123 5.095.437-5.716.87-9.68 2.144-14.133 5.993l-2.637 2.554c1.338-4.914 6.94-8.125 11.675-8.984" fill="#a65012"/><path d="M190.14 159.341c2.669.018.764 3.923.136 5.168-.577 1.141-.979 1.852-2.225 2.241-.545-.086-.624-.074-1.086-.405-1.153-1.75 1.597-6.034 3.175-7.004" fill="#f2a96f"/><path d="M103.35 106.38c4.256-.25 6.88.273 10.4 3.006 1.238.96 3.372 3.767 3.496 5.248l-.267-.037c-3.636-3.946-8.577-7.519-14.11-7.837l-.002-.147z" fill="url(#c)"/><path d="M182.947 159.229c.468-.046.517-.037.986.016 1.115.962-.256 3.402-.76 4.514-.522 1.15-1.141 1.988-2.38 2.382-3.601-.703.742-5.815 2.154-6.912m-81.107-1.059c.73-.036.769-.028 1.219.487.44 1.66-1.284 5.222-2.868 5.999-3.681-.281.115-5.394 1.648-6.487m-6.442-1.159c.716-.004.765-.033 1.2.478.38 1.726-1.628 4.937-3.208 5.757-.295-.15-.857-.43-.979-.713-.842-1.951 1.666-4.675 2.987-5.521" fill="#f2a96f"/><path d="M127.973 152.74c.167.12.385.33.399.535.107 1.577.188 3.339-1.693 3.507-1.605-1.415-.06-3.184 1.294-4.041" fill="#2e1f02"/><path d="M224.67 59.746c.388.488.722.905 1.072 1.427 2.93 3.965 5.095 8.458 8.06 12.36 1.112 1.464 1.871 1.288 3.439.831 2.521 3.346 4.598 7.073 6.441 10.836.734 1.5 1.318 3.225 2.027 4.703.223.479.199.542.661.808 2.977.282 8.032-12.674 9.107-15.153 3.125 10.109 5.228 20.487 5.43 31.095.248 13.033.179 25.918 1.692 38.895 2.013 17.468 8.531 33.365 17.654 48.278 7.214 11.792 15.264 29.849 7.679 43.072 4.598-19.695-15.609-40.245-23.249-57.078-4.541-10.005-6.604-18.548-9.378-29.007.053 1.217.28 2.26.464 3.451 1.978 12.725 3.64 25.56 7.537 37.887 4.192 13.157 9.68 25.786 13.518 39.067 3.366 11.646 4.083 24.973-3.085 35.414-1.51 2.2-3.574 4.066-5.55 5.839 9.004-14.44.785-37.657-4.633-52.124-.294-.785-.33-1.329-.807-2.082-.022.545.372 2.026.492 2.72q.488 2.964.932 5.936c3.204 21.532 1.431 41.909-21.476 51.508-.111-.65-.193-1.343-.283-2 .697-1.135 1.97-2.265 2.755-3.404 15.243-22.137 3.021-54.894-2.99-77.911a198 198 0 0 1-4.97-25.223c-.319-2.61-.625-5.194-.724-7.819-.098-2.635.303-2.955 1.673-5.07.313-.483.974-2.036 1.208-2.612a28.8 28.8 0 0 0 1.976-8.177c.483-5.284-.155-9.79-2.799-14.429-.533-.935-1.664-2.335-1.756-3.345-.164-1.793-.016-3.876.053-5.684q.195-4.14.185-8.285c.015-12.555-.979-29.244-5.919-40.795a49.6 49.6 0 0 0-7.595-12.245l-.778-.941c.329-.247.549-.371.748-.445-.199.075-.42.198-.749.445-3.139-3.737-5.567-5.61-9.716-8.031 4.011 4.438 7.21 7.243 10.594 12.422 8.383 12.834 9.942 28.166 9.952 43.139.003 4.344.1 9.192-.176 13.567-1.847 29.339-5.776 60.601-19.658 86.933-3.439 6.525-10.95 16.156-15.754 21.572 3.354-6.831 8.811-17.014 10.922-24.019-1.153 1.695-2.227 3.775-3.289 5.578a446 446 0 0 0-6.867 11.878c-7.231 12.829-17.612 29.428-14.637 44.814l.037.189c-6.254-5.333-5.734-13.204-4.953-20.73-2.095 5.798-3.256 13.044-1.414 19.053-3.366-3.463-5.705-8.372-5.361-13.235.85-11.998 7.238-23.931 12.473-34.56 7.843-15.924 13.417-32.096 18.79-48.962 1.041-3.268 2.109-7.437 3.426-10.547-3.281 3.691-10.443 13.081-15.877 13.16l-.126-.135c.594-.748 1.598-1.52 2.373-2.412a49.6 49.6 0 0 0 5.887-8.558c1.358-2.471 2.748-6.073 3.652-8.774 5.354-16.013 5.806-35.183 3.937-51.833-1.407-12.533-4.878-26.108-12.337-36.423-.981-1.358-3.817-4.908-5.163-6.036 9.158 15.465 13.595 27.582 14.632 45.723.176 3.08.738 8.631.193 11.583-6.026-6.236-10.341-14.164-14.277-21.821 2.932 1.647 5.745 3.709 8.374 5.802l.667-.001a34 34 0 0 0-7.297-7.518c-3.82-2.838-3.301-1.63-5.286-6.205a132 132 0 0 1-3.743-9.476c-1.001-2.888-1.863-5.877-2.925-8.733.417 2.871.6 5.756 1.05 8.637.595 3.805 1.652 7.279 2.752 10.968-3.394-1.338-5.778-1.617-9.372-1.631-2.367-4.937-5.518-15.06-5.742-20.512-.132-3.225.374-6.412.028-10.321-.545 1.417-1.005 3.698-1.386 5.234l-2.31 9.158c-1.613 6.219-3.952 13.182-6.495 19.061-1.036 2.392-2.726 4.988-3.962 7.303-1.484 2.778-2.825 5.198-4.634 7.792-.127-4.403.724-10.61 1.147-15.097.265-2.814.556-6.651.948-9.352-4.964 12.272-6.049 32.492-3.722 45.514q-.275-.105-.545-.215c-5.836-2.374-8.491-5.619-12.126-10.574-2.987-4.07-3.873-6.665-5.786-11.174.004 6.964 1.125 10.672 3.072 17.165-7.443-6.543-11.057-16.758-13.116-26.2-1.652-7.572-1.601-14.654-.284-22.243-4.128 7.791-3.899 13.919-3.086 22.44-1.978-2.673-3.562-3.908-6.478-5.536-.858-4.01-.407-10.44.078-14.596a50.47 50.47 0 0 1 19.133-33.621 25.4 25.4 0 0 0-4.978 2.679c-6.587 4.483-12.062 12.444-14.636 19.977-.627 1.833-.98 4.257-1.836 5.925-.491.958-1.832 2.604-2.499 3.536a288 288 0 0 0-5.263 7.522 89 89 0 0 0-4.241 6.884c-.841 1.483-1.999 3.712-2.895 5.096-1.23 1.899-3.53 3.627-3.963 6.183-.161.955.316.644.826 1.342-2.594 5.091-5.926 13.915-7.162 19.504-1.106-11.213 3.175-30.079 7.214-40.491-1.167 1.396-3.074 5.663-3.828 7.479-7.082 17.074-8.899 38.92-1.625 56.238-1.891-.845-3.37-2.024-5.042-3.192-16.288-11.371-18.378-33.45-11.984-51.183-1.508 1.94-2.977 4.617-4.075 6.824-5.092 10.227-6.136 18.678-5.98 29.853-1.338-3.006-2.451-5.054-3.154-8.369-2.089-9.851.847-19.966 4.902-28.917.98-2.165 2.575-5.337 3.877-7.297 2.94-5.161 9.147-13.032 13.276-17.167a310 310 0 0 1 7.276-7.486c1.455-1.435 3.511-3.261 4.801-4.713-.682-1.248-1.664-2.72-2.41-3.981a487 487 0 0 0-6.577-10.895c-3.779-6.074-7.814-11.298-12.295-16.861-1.686-2.093-3.582-4.709-5.611-6.49-.652-.573-1.688-.836-2.527-1.031l-.098-.159c.218-.213.677-.268.97-.212 14.989 2.865 29.184 10.376 42.115 18.274 2.434 1.487 5.906 3.731 7.767 5.726-5.531 3.065-10.779 5.739-14.917 10.692 4.832-2.657 9.632-5.425 14.629-7.764 2.694-1.291 5.502-2.312 8.273-3.414 26.293-10.458 54.163-9.336 80.715.193-1.411 1.522-7.807 5.66-3.729 7.138.833-.091 5.068-3.547 6.199-4.309 3.508-2.362 6.94-4.943 10.624-7.05 6.469-3.588 12.914-7.645 19.681-10.665 3.282-1.465 7.012-2.733 10.371-4.191 3.596-1.56 8.036-2.611 11.846-3.424.858-.182 3.48-.856 4.166-.711-.154.125-.113.119-.312.163-1.44.313-2.777 1.209-3.97 2.109-12.435 9.368-22.894 21.153-31.033 34.406-.543.882-1.114 1.76-1.648 2.647-.508.847-1.765 2.647-.94 3.556 1.777 1.958 3.705 3.639 5.421 5.675v.001Z" fill="#207533"/><path d="M57.11 143.786c1.068.243 3.014 1.862 4.472 2.488.828-.424 1.87-1.066 2.697-1.54.318 1.66.54 3.523.83 5.22l1.975 10.965a1466 1466 0 0 0 9.44 48.612c1.195 5.646 2.32 12.013 3.734 17.536l-.154-.06-.255-.106c-1.972-.795-6.88-4.561-8.261-4.611-2.263-.083-3.559 5.319-5.174 6.687-1.573 1.332-4.766-3.562-6.797-3.666-2.548-.13-3.925 5.185-5.623 6.659-1.647 1.43-5.188-4.012-7.32-4.036-1.826-.02-4.679 5.638-6.16 7.04l-.128.119c-5.195-3.057-5.013-6.759-10.08-.736-.451.538-1.362 1.366-1.896 1.9-.847.91-1.388 1.437-2.419 2.118a135 135 0 0 1-.337-4.37c2.937-1.865 6.948-2.971 8.312-6.49 1.02-2.63.697-4.295-1.893-5.373.639-3.748.434-6.672-3.735-7.706.36-1.46.52-2.32-.184-3.794-1.583-3.317-5.814-5.258-9.033-6.491-.846-3.596-1.618-8.717-2.295-12.445l-3.242-17.936c-1.211-6.908-2.348-13.667-3.915-20.506 2.603 1.432 4.28 3.442 6.114.21.427-.752 1.55-1.89 2.225-2.453 6.108 2.612 4.648 4.891 9.233-1.156 1.252-1.65 4.03 2.326 5.461 2.205 1.606-.136 3.68-3.286 4.946-4.48l.193-.18c1.81.65 4.062 2.663 5.503 2.867.864.121 3.453-3.6 4.324-4.54l.13-.138c7.065 3.36 3.61 3.805 9.312-1.813" style="fill:#fff"/><path d="M61.482 188.115c4.063-.447 4.12 3.211 1.065 3.848-3.105.648-6.295 1.263-9.415 1.915a1031 1031 0 0 1-23.46 4.75c-1.04.123-2.8.242-3.068-1.202-.292-1.58.648-2.126 2.024-2.466 3.125-.774 6.307-1.297 9.463-1.964zm-2.512-15.813c2.112-.16 2.899 1.46 2.02 3.032-.543.976-4.738 1.61-5.776 1.827q-4.06.854-8.13 1.66l-21.128 4.238c-1.325.143-2.216-.09-2.515-1.568-.313-1.617 1.006-2.106 2.337-2.352 11.103-2.054 22.124-4.653 33.192-6.837" fill="#3d3f34"/><path d="M77.253 141.309c1.239.776 2.466 1.569 3.721 2.32 1.089.651 2.406 1.189 3.474 1.809a208 208 0 0 1 .923 12.254c.352 8.033.134 14.676 5.275 21.476 3.931 5.202 8.308 8.726 13.295 12.855-3.423 9.71-7.084 19.239-11.587 28.494a103 103 0 0 0-3.291 7.588c1.789-11.849 5.779-23.355 7.794-35.37-.732 1.916-1.248 3.851-1.923 5.748-1.246 3.502-2.373 7.02-3.449 10.569-4.229 13.953-8.905 32.058-2.543 46.022.907 1.991 2.113 3.921 3.265 5.798-10.113-2.227-11.561-10.222-13.644-19.156-.301-1.292-.789-7.274-1.049-7.674-.202-1.559-.088-2.897-.416-5.038 1.432.841 2.088 1.225 3.684 1.657.43-.145.862-.297 1.278-.478.474-.205.852-.523 1.017-1.028.523-1.613-4.268-22.667-4.938-25.966-.393-1.932-1.288-4.403-1.06-6.353.407-3.469 4.412-19.492 3.577-21.354a29 29 0 0 1-.693 2.204c-1.4 4.071-2.551 8.237-4.133 12.244a53 53 0 0 1-.263.655v.001c-.889-3.829-1.51-8.082-2.314-11.969-.111-.537-.298-1.452-.494-2.477-.366-1.914-.765-4.213-.763-5.149.001-.345.162-1.072.39-1.943.389-1.488.972-3.398 1.277-4.55q.08-.301.131-.525.208-.912.398-1.813c.662-3.156 1.164-6.236 1.712-9.467q.438-3.42.818-6.846c.143-1.334.287-3.294.53-4.537Zm-.156 87.696c.327 2.14.214 3.479.416 5.037-.106 8.732-2.094 12.913 2.553 21.595a103 103 0 0 1-1.649-1.848c-7.304-8.475-6.169-17.167-5.443-27.365 1.44.731 2.783 1.679 4.123 2.581" fill="#207533"/><path d="M228.268 43.126c2.697-3.618 5.978-8.2 8.814-11.563 3.627-4.302 17.295-18.557 22.01-20.073 3.883 17.518-1.303 46.527-7.202 63.4-1.903 5.444-4.015 9.823-6.18 15.014-.709-1.479-1.293-3.203-2.027-4.703-1.843-3.764-3.92-7.491-6.441-10.837 2.783-2.76 3.783-6.886 4.031-10.74.086-1.332-.207-2.136-.95-3.18l-.048-.065c2.568-.963 4.073-3.184 4.582-5.81-1.006-3.17-2.786-4.18-5.847-4.914 1.582-2.196 4.577-6.86 4.018-9.503-1.197-5.656-12.618 1.685-14.76 2.974" fill="#de8f4a"/><path d="M234.186 164.48c.245.23 1.308 9.486 1.499 10.717a203 203 0 0 0 4.548 21.485c5.915 22.583 16.563 52.239 2.757 74.039-.261.438-.615.939-.903 1.37-.85-6.03-1.768-12.82-2.203-18.874-.388-5.402-.471-10.585-1.37-15.981-.962-5.757-2.16-11.288-3.582-16.951-1.067-4.732-1.947-9.507-3.077-14.227-1.759-7.891-3.56-16.683-3.635-24.776-.024-2.387 1.302-6.49 1.85-8.96.356-1.603.858-4.08 1.345-5.552q1.404-1.123 2.771-2.29" fill="#207533"/><path d="M145.74 209.96a207 207 0 0 0 24.216-9.805c1.378-.664 4.913-2.558 6.224-2.794.594.643.972 7.07 1.208 8.539a50 50 0 0 0 1.562 6.756 89.5 89.5 0 0 1-23.458 18.1c-1.021.553-4.14 2.217-5.196 2.547-2.722 1.372-5.075 2.17-8.08 2.547-2-1.643-3.018-3.344-3.894-5.752-.933-2.726-.652-7.011.488-9.689.557-1.31 3.032-3.73 4.515-3.726.66.74.324 4.286.26 5.452a51 51 0 0 1-.263 2.978c3.228-5.61 3.007-9.047 2.418-15.153" style="fill:#fbd5b4"/><path d="m138.322 230.098.196-.198c.714.13 3.256 1.585 4.653 2.008 1.643.5 6.334 1.007 7.125 1.395-2.722 1.372-5.075 2.17-8.08 2.547-2-1.643-3.018-3.344-3.894-5.752" fill="#fbd5b4"/><path d="M62.68 73.291q-.129-.231-.252-.467c-.927-1.79-2.094-5.899-2.657-7.89a116.8 116.8 0 0 1-3.548-45.524c.245-1.968.546-3.933.911-5.882.135-.718.246-1.25.934-1.57.49.055.693.327 1.068.666 2.958 2.917 5.653 6.877 8.124 10.287a204 204 0 0 1 8.827 12.987c.8 1.282 2.076 3.237 2.758 4.55-1.868-1.139-5.39-3.409-7.64-2.775-4.494 1.267-.185 8.475 1.413 10.569-1.858.538-2.718.782-4.147 2.181-.854 1.51-.99 1.946-.75 3.737.945 3 2.594 3.715 4.523 5.459 1.535 1.387-2.874 5.43-4.162 6.845-1.88 1.944-3.715 5.15-5.402 6.827" fill="#f2a96f"/><path d="M59.136 12.624c2.958 2.917 5.653 6.877 8.124 10.287a204 204 0 0 1 8.827 12.987c.8 1.282 2.076 3.237 2.758 4.55-1.868-1.139-5.39-3.409-7.64-2.775-4.494 1.267-.185 8.475 1.413 10.569-1.858.538-2.718.782-4.147 2.181 1.114-7.518-5.8-24.234-7.744-31.84-.462-1.807-1.479-4.027-1.591-5.96m8.585 41.537c.945 3 2.594 3.715 4.523 5.459 1.535 1.387-2.874 5.43-4.162 6.845-.609-5.27-.537-7.133-.361-12.304" fill="#de8f4a"/><path d="M106.931 193.138c1.534.987 3.337 1.852 4.928 2.769 8.73 5.029 17.448 7.741 26.967 10.7-2.839 1.553-6.293 2.778-9.188 4.45-1.304.534-3.51 2.689-4.786 2.961-2.61.558-4.952.873-7.538 1.72.142-4.326.76-10.617 1.36-14.934-2.466 5.263-2.967 9.914-3.735 15.581-1.502.522-2.666.94-4.133 1.58-2.278 1.012-4.16 1.893-6.232 3.355-7.621 5.376-11.241 14.224-14.943 22.417-.702-10.084 5.453-20.85 9.127-29.846a1219 1219 0 0 0 8.173-20.753" fill="#207533"/><path d="M59.73 228.945c1.67.672 3.724 2.884 5.286 3.861 2.358 1.475 3.892-2.134 4.738-3.704-.047 1.986-.305 4.028-.295 6.007.048 9.366 2.926 19.966 11.897 24.463a133 133 0 0 1-2.208 4.444c-3.161.844-4.525 1.242-7.457 2.782l-.577.303c-.769-.272-1.843-2.268-2.438-3.025-2.993-3.81-5.44-6.077-9.87-8.056-.795-1.599-1.571-3.223-2.395-4.805-1.581-3.037-3.028-4.846-6.625-5.174 1.265-5.514 1.043-7.148-.22-12.456.785.528 3.528 2.77 4.224 2.495 2.576-1.02 3.958-5.276 5.94-7.135" fill="#fefaf2"/><path d="M180.942 206.834v-.001a149 149 0 0 0 5.178 1.897 423 423 0 0 1-5.736 12.45l-.558 1.165c-1.594 3.326-3.78 7.889-4.962 10.979-.788 2.009-2.137 7.508-3.606 8.635-7.762 5.949-17.123 5.498-23.646-2.02-.461-.532-.931-1.109-.86-1.843.526-.609 9.038-4.321 10.697-5.184 4.582-2.744 8.981-5.69 13.089-8.984a84 84 0 0 0 5.644-4.945 72 72 0 0 0 6.395-6.99c.844-1.058 1.614-2.042 1.128-3.453l-.139-.102-.125-.091c-1.617.257-1.98.479-2.331-.8a13 13 0 0 1-.168-.713" style="fill:#3f88c5"/><path d="M226.658 185.104c.265.644.655 3.675.79 4.526q.547 3.68 1.317 7.32c2.858 13.88 7.03 27.297 8.609 41.433.118 1.065.477 3.986.372 4.876-.115-.086-2.256-8.447-2.996-10.239l-.094-.252c-2.178-5.86-9.309-11.407-14.808-14-2.407-1.136-4.682-1.75-6.915-2.783l-.188-.088a120.3 120.3 0 0 0 11.2-22.595c.961-2.594 1.826-5.535 2.713-8.198" fill="#207533"/><path d="M135.428 229.992c.324 1.49.68 2.552 1.129 3.694.266.678.565 1.383.91 2.223q-.223.184-.447.363c-.43.342-.875.686-1.334 1.022-2.05 1.498-4.382 2.83-6.879 3.105a8.3 8.3 0 0 1-2.024-.021c-6.787-.92-6.146-8.506-5.425-13.534 1.276-5.125 3.058-9.051 7.817-11.887 1.915-1.141 11.474-6.12 12.846-5.808.405 1.394-2.642 3.489-3.434 4.594-3.356 4.678-4.033 10.687-3.16 16.249Z" style="fill:#3f88c5"/><path d="M47.937 240.189c.057 3.976-2.429 8.484-.899 12.246.278.683.983 1.491 1.434 2.093-1.665 4.563-5.306 8.742-9.651 10.953-1.951.993-6.2 1.976-6.505-1.286h-.001c-.756-6.199-6.571-8.908-11.022-12.359-2.381-1.846-3.682-3.135-5.757-5.187-3.428-3.393-5.109-5.742-5.916-10.655-.845-5.619-.591-11.806 2.713-16.654 3.444-5.054 10.567-6.091 15.493-2.605 1.572 1.112 1.845 2.454 2.031 4.24a16.8 16.8 0 0 0-3.421-.428 15.13 15.13 0 0 0-10.991 4.195c-2.855 2.723-3.765 5.505-3.874 9.331 2.843-5.127 6.192-9.921 12.526-10.769 1.929-.242 5.45-.034 6.923 1.343 2.452 2.372-2.968 5.344-4.745 6.108-1.653.712-8.385 5.379-8.157 7.3l.429.294c3.022-1.173 3.72-2.355 4.721 1.436.409 1.459 1.009 3.86 3.035 2.534.56-.582 1.172-1.253 1.767-1.787 3.705.974 6.303 2.338 8.233 5.795 1.357 1.989 1.726 3.383 1.976 5.793.097 2.95-1.096 8.158-2.96 10.544-.303.389-.819.648-1.367.868.548-.219 1.064-.479 1.367-.868 1.864-2.386 3.057-7.594 2.96-10.544.593-.983.184-3.86-.099-4.978-1.191-4.692-4.54-6.492-8.92-7.567 1.297-1.604 3.506-4.069 5.148-5.268l.172.108c1.693 1.085 4.454 4.321 6.066 3.943 1.415-.331 3.724-3.825 4.825-5.099 2.219 2.351 2.419 3.706 2.466 6.929Z" style="fill:#fbd5b4"/><path d="M239.826 40.46c.26-.025.252-.001.518.048.397 1.19-2.065 5.577-2.784 6.753-.655 1.07-2.264 2.48-2.236 3.71.88 2.013 6.277 1.23 6.74 3.772.502 2.772-4.209 3.123-5.377 4.635-.71.915 1.696 2.37 1.838 3.166.56 2.764-1.433 6.996-2.45 9.314l-1.558-2.074c-1.62-2.289-3.183-5.513-4.977-8.082-2.546-3.643-4.512-5.514-7.372-8.768 1.086-1.335 2.365-3.647 3.24-4.609 2.886-3.17 10.359-6.924 14.418-7.865m-44.781 144.68.13.177c-.896 3.837-5.964 17.297-7.89 20.709-1.52-.618-3.115-1.182-4.659-1.75-.74-.273-1.372-.443-1.911-1.003-.611-1.494-.366-6.367-.132-8.02 1.116-.928 4.948-3.048 6.592-4.15 2.698-1.809 5.373-4.335 7.87-5.963" fill="#207533"/><path d="M175.891 89.511c3.381.277 6.92.986 9.886 2.698.617 1.08 1.188 2.474 1.738 3.66 2.207 4.76 5.018 9.293 7.985 13.611 1.018 1.48 2.389 2.922 3.319 4.302l.139.212c-9.003-4.742-18.904-15.107-23.067-24.483" style="fill:#207533"/><path d="M71.83 39.813c2.498.58 3.489 1.34 5.602 2.65 3.762 2.332 4.909 4.388 6.712 8.254-2.972 2.284-4.884 4.214-7.485 6.886l-1.58 1.699c-.296-.56-.618-1.195-1.045-1.696-1.008-1.182-3.718-2.83-3.818-4.468.144-2.374 4.457-1.839 5.597-3.112.722-1.026-.962-3.426-1.447-4.289-1.12-1.993-2.29-3.614-2.536-5.924" fill="#207533"/><path d="m164.837 88.7-.05-.073c.01-.672 2.211-4.78 2.605-6.757.768 1.461 1.705 3.307 2.685 4.611-2.254.675-3.196 1.06-5.24 2.22M15.59 206.28c3.1-.292 7.657 2.406 9.64 4.767.305.362.5 1.172.624 1.65-4.612-.856-7.06-1.162-11.38 1.164-2.571 1.54-3.944 3.172-5.33 5.757a13.76 13.76 0 0 1 1.069-8.182c1.165-2.513 2.765-4.184 5.378-5.155" fill="#fbd5b4"/><path d="M235.778 133.97c1.25.834 2.035 4.313 2.21 5.803.752 6.425-.1 12.222-4.074 17.449l-1.191 1.486c1.384-7.738 2.392-16.956 3.055-24.737" style="fill:#fbd5b4"/><path d="M110.491 91.52c2.088.42 4.027 1.428 5.748 2.651.337 1.922.457 3.976.812 5.98.49 2.769 1.156 5.284 1.768 8.007-.51-.447-1.907-2.319-2.322-2.916-3.101-4.451-5.15-8.271-6.006-13.722" style="fill:#207533"/><path d="m105.743 78.312.227.2c.343 2.778.515 6.402.867 9.099-2.715-.424-4.543-.275-7.117.522-.46.173-.632.21-1.1.319l-.065-.172c.82-2.13 5.476-8.336 7.188-9.968" style="fill:#fbd5b4"/><path d="M104.162 84.303c.347.764 1.017 2.038.902 2.783-.44.317-.726.196-1.366.189l-.74-.016-.131-.209c.149-.83.889-1.929 1.335-2.747" fill="#fbd5b4"/><path d="M162.958 124.238c1.847-2.793 4.175-4.712 6.937-6.451 11.302-7.114 25.802 2.436 27.748 14.646.228 1.443.569 3.157.253 4.61.016-.951-.614-1.694-.778-2.665-.271-1.614-3.204-6.731-4.9-6.495-.857-2.738-1.536-4.754-3.419-7.003-3.215-3.843-7.755-4.692-12.192-2.374-.76.397-1.967 1.488-2.629 2.099-2.933-.897-8.161 3.596-9.825 5.712-.306-.938-.408-1.517-1.195-2.079" fill="#d5cdbf" style="stroke-width:1"/><path d="M192.225 127.821c1.696-.236 4.629 4.882 4.9 6.495.164.972.794 1.715.778 2.665-.098 1.239-.331 2.482-.536 3.709.036 1.36-2.101 4.895-2.977 6.006-1.321 1.673-4.835 4.486-6.911 4.811-.38-.107-.265-.029-.551-.262 2.634-2.388 4.121-5.819 5.085-9.172 1.394-4.846 1.227-9.386.212-14.252m-28.092-1.573c1.664-2.116 6.892-6.609 9.824-5.711-.735.966-1.447 1.926-2.083 2.964-4.866 7.937-5.21 22.861 2.81 29.04-1.507 1.935-6.114-3.439-6.979-4.731-3.739-5.588-4.902-15.078-3.572-21.562m-73.21 2.175c.78-.38 1.312-1.299 1.84-2.019 1.822-2.483 4.111-5.527 7.379-6.006.784-.115 1.714-.219 2.361.243-3.774 5.419-4.701 12.523-3.522 18.922.844 4.578 2.916 10.009 7.216 12.373-.361.256-1.331.341-1.762.285-4.319-.565-8.001-3.956-10.408-7.391-.668-.952-2.419-3.742-2.342-4.815-.889-4.189-1.461-7.311-.762-11.592" style="fill:#fff;stroke-width:1"/><path d="M90.917 128.469c.22-1.76 1.2-4.648 2.089-6.196 4.234-7.365 9.146-8.941 16.414-5.173-3.291.18-4.796 1.235-6.924 3.587-.647-.462-1.576-.358-2.361-.243-3.268.48-5.557 3.523-7.378 6.006-.529.72-1.061 1.639-1.84 2.019" fill="#d5cdbf" style="stroke-width:1"/></g></svg></svg>